<?xml version="1.0" encoding="UTF-8" standalone="no"?>
<svg
   xmlns:dc="http://purl.org/dc/elements/1.1/"
   xmlns:cc="http://creativecommons.org/ns#"
   xmlns:rdf="http://www.w3.org/1999/02/22-rdf-syntax-ns#"
   xmlns:svg="http://www.w3.org/2000/svg"
   xmlns="http://www.w3.org/2000/svg"
   xmlns:sodipodi="http://sodipodi.sourceforge.net/DTD/sodipodi-0.dtd"
   xmlns:inkscape="http://www.inkscape.org/namespaces/inkscape"
   inkscape:version="1.0 (4035a4fb49, 2020-05-01)"
   sodipodi:docname="INPROG-media-playlist-repeat-disable-rtl-symbolic.svg"
   id="svg3982"
   version="1.1"
   height="16"
   width="16">
  <metadata
     id="metadata3988">
    <rdf:RDF>
      <cc:Work
         rdf:about="">
        <dc:format>image/svg+xml</dc:format>
        <dc:type
           rdf:resource="http://purl.org/dc/dcmitype/StillImage" />
        <dc:title></dc:title>
      </cc:Work>
    </rdf:RDF>
  </metadata>
  <defs
     id="defs3986" />
  <sodipodi:namedview
     inkscape:current-layer="svg3982"
     inkscape:cy="12.074696"
     inkscape:cx="3.1192487"
     inkscape:zoom="22.627417"
     showgrid="false"
     id="namedview3984"
     inkscape:window-height="480"
     inkscape:window-width="640"
     inkscape:pageshadow="2"
     inkscape:pageopacity="0"
     guidetolerance="10"
     gridtolerance="10"
     objecttolerance="10"
     borderopacity="1"
     bordercolor="#666666"
     pagecolor="#ffffff" />
  <path
     d="M 10 1 L 6 4 L 10 7 L 10 5 L 12 5 C 12.554 5 13 5.446 13 6 L 13 9.9140625 L 14.740234 11.216797 C 14.905072 10.844647 15 10.434584 15 10 L 15 6 C 15 4.338 13.662 3 12 3 L 10 3 L 10 1 z M 1.2714844 4.7910156 C 1.1044593 5.1608668 1 5.5653063 1 6 L 1 10 C 1 11.662 2.338 13 4 13 L 12 13 C 12.069365 13 12.135105 12.987191 12.203125 12.982422 L 9.5566406 11 L 4 11 C 3.446 11 3 10.554 3 10 L 3 6.0859375 L 1.2714844 4.7910156 z "
     style="fill:#444444"
     id="path3980" />
  <rect
     transform="rotate(-53.155226)"
     y="2.2409663"
     x="-2.3512723"
     height="17.916662"
     width="1.4927229"
     id="rect4026"
     style="fill:#444444;stroke-width:11.6836;stroke-linejoin:round;stroke-dashoffset:0.754014" />
  <rect
     style="fill:#444444;stroke-width:11.6836;stroke-linejoin:round;stroke-dashoffset:0.754014"
     id="rect4028"
     width="1.4927229"
     height="17.916662"
     x="11.381722"
     y="15.418275"
     transform="rotate(-45)" />
  <path
     style="fill:#444444"
     d="M -8.3130961,0.88282159 V 2.8828216 h 2 c 1.662,0 3,1.338 3,3 v 4 c 0,1.6620004 -1.338,3.0000004 -3,3.0000004 h -7.9999999 c -1.662,0 -3,-1.338 -3,-3.0000004 v -4 c 0,-1.662 1.338,-3 3,-3 h 1 v 2 h -1 c -0.554,0 -1,0.446 -1,1 v 4 c 0,0.5540004 0.446,1.0000004 1,1.0000004 h 7.9999999 c 0.554,0 1,-0.446 1,-1.0000004 v -4 c 0,-0.554 -0.446,-1 -1,-1 h -2 v 2 l -3.9999999,-3 z"
     id="path4032" />
  <rect
     style="fill:#444444;stroke-width:11.6836;stroke-linejoin:round;stroke-dashoffset:0.754014"
     id="rect4054"
     width="1.4927229"
     height="17.916662"
     x="15.0185"
     y="11.640645"
     transform="rotate(-53.155226)" />
  <path
     id="path4068"
     style="fill:#444444"
     d="m -10.763155,14.783583 -4,3 4,3 v -2 h 2.0000004 c 0.554,0 1,0.446 1,1 v 3.914062 l 1.740234,1.302735 c 0.164838,-0.37215 0.259766,-0.782213 0.259766,-1.216797 v -4 c 0,-1.662 -1.338,-3 -3,-3 h -2.0000004 z m -8.720703,3.767578 c -0.173034,0.375821 -0.279297,0.788983 -0.279297,1.232422 v 4 c 0,1.662 1.338,3 3,3 h 8.0000004 c 0.682942,0 1.30347,-0.235695 1.806641,-0.617188 l -1.845703,-1.382812 h -7.9609384 c -0.554,0 -1,-0.446 -1,-1 v -3.94336 z" />
  <rect
     style="fill:#444444;stroke-width:11.6836;stroke-linejoin:round;stroke-dashoffset:0.754014"
     id="rect4070"
     width="1.4927229"
     height="17.916662"
     x="-25.832373"
     y="-6.109705"
     transform="rotate(-53.155226)" />
  <path
     id="path4076"
     style="fill:#444444"
     d="m 10.589424,18.15945 -3.9999999,3 3.9999999,3 v -2 h 2 c 0.554,0 1,0.446 1,1 v 3.914063 l 1.740234,1.302734 c 0.164838,-0.37215 0.259766,-0.782213 0.259766,-1.216797 v -4 c 0,-1.662 -1.338,-3 -3,-3 h -2 z M 1.8609085,21.950466 C 1.6938834,22.320317 1.5894241,22.724757 1.5894241,23.15945 v 4 c 0,1.662 1.338,3 3,3 h 7.9999999 c 0.06937,0 0.135105,-0.01281 0.203125,-0.01758 L 10.146065,28.15945 H 4.5894241 c -0.554,0 -1,-0.446 -1,-1 v -3.914062 z" />
  <rect
     style="fill:#444444;stroke-width:11.6836;stroke-linejoin:round;stroke-dashoffset:0.754014"
     id="rect4078"
     width="1.4927229"
     height="17.916662"
     x="-15.729898"
     y="13.002311"
     transform="rotate(-53.155226)" />
</svg>
