<?xml version="1.0" encoding="UTF-8" standalone="no"?>
<svg
   xmlns:dc="http://purl.org/dc/elements/1.1/"
   xmlns:cc="http://creativecommons.org/ns#"
   xmlns:rdf="http://www.w3.org/1999/02/22-rdf-syntax-ns#"
   xmlns:svg="http://www.w3.org/2000/svg"
   xmlns="http://www.w3.org/2000/svg"
   xmlns:sodipodi="http://sodipodi.sourceforge.net/DTD/sodipodi-0.dtd"
   xmlns:inkscape="http://www.inkscape.org/namespaces/inkscape"
   inkscape:version="1.0 (4035a4fb49, 2020-05-01)"
   sodipodi:docname="periotimer-repeat-inactive-symbolic.svg"
   viewBox="0 0 16 16"
   id="svg3197"
   height="16"
   width="16"
   version="1.0">
  <sodipodi:namedview
     inkscape:document-rotation="0"
     inkscape:current-layer="svg3197"
     inkscape:window-maximized="0"
     inkscape:window-y="25"
     inkscape:window-x="0"
     inkscape:cy="8.8656949"
     inkscape:cx="4.3348656"
     inkscape:zoom="27.812867"
     showgrid="true"
     id="namedview6"
     inkscape:window-height="839"
     inkscape:window-width="1338"
     inkscape:pageshadow="2"
     inkscape:pageopacity="0"
     guidetolerance="10"
     gridtolerance="10"
     objecttolerance="10"
     borderopacity="1"
     bordercolor="#666666"
     pagecolor="#ffffff">
    <inkscape:grid
       id="grid4483"
       type="xygrid" />
  </sodipodi:namedview>
  <metadata
     id="metadata12">
    <rdf:RDF>
      <cc:Work
         rdf:about="">
        <dc:format>image/svg+xml</dc:format>
        <dc:type
           rdf:resource="http://purl.org/dc/dcmitype/StillImage" />
        <dc:title></dc:title>
      </cc:Work>
    </rdf:RDF>
  </metadata>
  <defs
     id="defs3199" />
  <path
     inkscape:connector-curvature="0"
     id="path3347"
     d="m -17.648438,0.76686522 -0.939453,0.94140628 13.5429766,13.5429705 0.939453,-0.941407 -1.917969,-1.917968 c 0.0069,-0.04087 0.02344,-0.07807 0.02344,-0.121094 0,-0.12171 -0.03491,-0.232546 -0.08594,-0.333984 -0.01437,-0.02865 -0.03495,-0.04979 -0.05273,-0.07617 -0.04554,-0.06784 -0.09739,-0.126199 -0.162109,-0.175782 -0.01552,-0.01193 -0.02261,-0.03226 -0.03906,-0.04297 C -7.9994784,11.02092 -7.9999924,6.0207715 -7.9999924,6.0207715 -8.0017924,4.1982093 -9.2353034,2.486177 -11,2.0305371 v -0.00977 c 0,-0.5522847 -0.447715,-1.0000001 -1,-1.0000001 -0.552285,0 -1,0.4477154 -1,1.0000001 v 0.00977 c -0.822088,0.2122578 -1.519798,0.7031967 -2.039063,1.3457032 z m 1.679688,4.87304688 c -0.0121,0.1268798 -0.03113,0.2524824 -0.03125,0.3808594 0,0 -5.25e-4,5.0001485 -1.660156,5.6210955 -0.01645,0.01071 -0.02354,0.03104 -0.03906,0.04297 -0.06472,0.04958 -0.116569,0.107944 -0.16211,0.175782 -0.01778,0.02638 -0.03837,0.04753 -0.05273,0.07617 C -17.965095,12.038227 -18,12.149063 -18,12.270773 c 0,0.4155 0.3345,0.75 0.75,0.75 h 8.6621166 z m 2.035156,8.3808609 a 2,2 0 0 0 1.933594,1.5 2,2 0 0 0 1.935547,-1.5 z"
     style="color:#bebebe;clip-rule:nonzero;display:inline;overflow:visible;visibility:visible;opacity:0.4;isolation:auto;mix-blend-mode:normal;color-interpolation:sRGB;color-interpolation-filters:linearRGB;solid-color:#000000;solid-opacity:1;fill:#bebebe;fill-opacity:1;fill-rule:nonzero;stroke:none;stroke-width:1.82311;stroke-linecap:butt;stroke-linejoin:miter;stroke-miterlimit:4;stroke-dasharray:none;stroke-dashoffset:0;stroke-opacity:1;marker:none;color-rendering:auto;image-rendering:auto;shape-rendering:auto;text-rendering:auto;enable-background:accumulate" />
  <rect
     transform="rotate(-45)"
     y="1.5620253"
     x="-0.96997857"
     height="19.503366"
     width="1.9399573"
     id="rect897"
     style="fill:#bebebe;fill-opacity:1;stroke-width:34.558;stroke-linejoin:round;stroke-dashoffset:0.754014" />
  <path
     d="M 7.0168178,0.273689 A 7.7584661,7.7584661 0 0 0 0.24220315,7.9685138 7.7584661,7.7584661 0 0 0 8.0000003,15.726311 7.7584661,7.7584661 0 0 0 15.757797,7.9685138 7.7584661,7.7584661 0 0 0 12.290251,1.5046984 L 13.00123,0.273689 H 8.0731297 L 10.537179,4.5415946 11.317224,3.1907347 A 5.8188496,5.8188496 0 0 1 13.817841,7.9685138 5.8188496,5.8188496 0 0 1 8.0000003,13.786353 5.8188496,5.8188496 0 0 1 2.1821604,7.9685138 5.8188496,5.8188496 0 0 1 7.0168178,2.2359913 Z"
     style="fill:#bebebe;fill-opacity:1;stroke-width:0.969803"
     id="path1962" />
</svg>
