<?xml version="1.0" encoding="UTF-8" standalone="no"?>
<svg
   xmlns:dc="http://purl.org/dc/elements/1.1/"
   xmlns:cc="http://creativecommons.org/ns#"
   xmlns:rdf="http://www.w3.org/1999/02/22-rdf-syntax-ns#"
   xmlns:svg="http://www.w3.org/2000/svg"
   xmlns="http://www.w3.org/2000/svg"
   xmlns:sodipodi="http://sodipodi.sourceforge.net/DTD/sodipodi-0.dtd"
   xmlns:inkscape="http://www.inkscape.org/namespaces/inkscape"
   inkscape:version="1.0 (4035a4fb49, 2020-05-01)"
   sodipodi:docname="periotimer-repeat-active-symbolic.svg"
   id="svg1964"
   version="1.1"
   height="16"
   width="16">
  <metadata
     id="metadata1970">
    <rdf:RDF>
      <cc:Work
         rdf:about="">
        <dc:format>image/svg+xml</dc:format>
        <dc:type
           rdf:resource="http://purl.org/dc/dcmitype/StillImage" />
        <dc:title />
      </cc:Work>
    </rdf:RDF>
  </metadata>
  <defs
     id="defs1968" />
  <sodipodi:namedview
     inkscape:current-layer="svg1964"
     inkscape:cy="8.8297492"
     inkscape:cx="5.4816796"
     inkscape:zoom="32"
     showgrid="false"
     id="namedview1966"
     inkscape:window-height="480"
     inkscape:window-width="640"
     inkscape:pageshadow="2"
     inkscape:pageopacity="0"
     guidetolerance="10"
     gridtolerance="10"
     objecttolerance="10"
     borderopacity="1"
     inkscape:document-rotation="0"
     bordercolor="#666666"
     pagecolor="#ffffff"
     inkscape:snap-smooth-nodes="true"
     inkscape:snap-bbox="true"
     inkscape:bbox-paths="true"
     inkscape:object-paths="true"
     inkscape:snap-page="true" />
  <path
     id="path1962"
     style="fill:#444444;stroke-width:0.969803"
     d="M 7.0168173,0.27368911 A 7.7584661,7.7584661 0 0 0 0.24220265,7.9685139 7.7584661,7.7584661 0 0 0 7.9999998,15.726311 7.7584661,7.7584661 0 0 0 15.757797,7.9685139 7.7584661,7.7584661 0 0 0 12.290251,1.5046985 L 13.00123,0.27368911 H 8.0731292 L 10.537179,4.5415947 11.317224,3.1907348 A 5.8188496,5.8188496 0 0 1 13.817841,7.9685139 5.8188496,5.8188496 0 0 1 7.9999998,13.786353 5.8188496,5.8188496 0 0 1 2.1821599,7.9685139 5.8188496,5.8188496 0 0 1 7.0168173,2.2359914 Z" />
</svg>
