<?xml version="1.0" encoding="UTF-8" standalone="no"?>
<svg
   xmlns:dc="http://purl.org/dc/elements/1.1/"
   xmlns:cc="http://creativecommons.org/ns#"
   xmlns:rdf="http://www.w3.org/1999/02/22-rdf-syntax-ns#"
   xmlns:svg="http://www.w3.org/2000/svg"
   xmlns="http://www.w3.org/2000/svg"
   xmlns:sodipodi="http://sodipodi.sourceforge.net/DTD/sodipodi-0.dtd"
   xmlns:inkscape="http://www.inkscape.org/namespaces/inkscape"
   inkscape:version="1.0 (4035a4fb49, 2020-05-01)"
   sodipodi:docname="media-playlist-repeat-rtl-symbolic.svg"
   id="svg3982"
   version="1.1"
   height="16"
   width="16">
  <metadata
     id="metadata3988">
    <rdf:RDF>
      <cc:Work
         rdf:about="">
        <dc:format>image/svg+xml</dc:format>
        <dc:type
           rdf:resource="http://purl.org/dc/dcmitype/StillImage" />
        <dc:title></dc:title>
      </cc:Work>
    </rdf:RDF>
  </metadata>
  <defs
     id="defs3986" />
  <sodipodi:namedview
     inkscape:current-layer="svg3982"
     inkscape:cy="8"
     inkscape:cx="8"
     inkscape:zoom="51.8125"
     showgrid="false"
     id="namedview3984"
     inkscape:window-height="480"
     inkscape:window-width="640"
     inkscape:pageshadow="2"
     inkscape:pageopacity="0"
     guidetolerance="10"
     gridtolerance="10"
     objecttolerance="10"
     borderopacity="1"
     bordercolor="#666666"
     pagecolor="#ffffff" />
  <path
     id="path3980"
     d="M 10,1 V 3 H 12 C 13.662,3 15,4.338 15,6 V 10 C 15,11.662 13.662,13 12,13 H 4 C 2.338,13 1,11.662 1,10 V 6 C 1,4.338 2.338,3 4,3 H 5 V 5 H 4 C 3.446,5 3,5.446 3,6 V 10 C 3,10.554 3.446,11 4,11 H 12 C 12.554,11 13,10.554 13,10 V 6 C 13,5.446 12.554,5 12,5 H 10 V 7 L 6,4 Z"
     style="fill:#444444" />
</svg>
