<?xml version="1.0" encoding="UTF-8" standalone="no"?>
<svg
   xmlns:dc="http://purl.org/dc/elements/1.1/"
   xmlns:cc="http://creativecommons.org/ns#"
   xmlns:rdf="http://www.w3.org/1999/02/22-rdf-syntax-ns#"
   xmlns:svg="http://www.w3.org/2000/svg"
   xmlns="http://www.w3.org/2000/svg"
   xmlns:sodipodi="http://sodipodi.sourceforge.net/DTD/sodipodi-0.dtd"
   xmlns:inkscape="http://www.inkscape.org/namespaces/inkscape"
   inkscape:version="1.0 (4035a4fb49, 2020-05-01)"
   sodipodi:docname="media-playlist-repeat-disable-rtl-symbolic.svg"
   id="svg3982"
   version="1.1"
   height="16"
   width="16">
  <metadata
     id="metadata3988">
    <rdf:RDF>
      <cc:Work
         rdf:about="">
        <dc:format>image/svg+xml</dc:format>
        <dc:type
           rdf:resource="http://purl.org/dc/dcmitype/StillImage" />
        <dc:title></dc:title>
      </cc:Work>
    </rdf:RDF>
  </metadata>
  <defs
     id="defs3986" />
  <sodipodi:namedview
     inkscape:current-layer="svg3982"
     inkscape:cy="7.3828261"
     inkscape:cx="7.9666635"
     inkscape:zoom="45.254834"
     showgrid="false"
     id="namedview3984"
     inkscape:window-height="480"
     inkscape:window-width="640"
     inkscape:pageshadow="2"
     inkscape:pageopacity="0"
     guidetolerance="10"
     gridtolerance="10"
     objecttolerance="10"
     borderopacity="1"
     bordercolor="#666666"
     pagecolor="#ffffff" />
  <path
     d="M 10 1 L 6 4 L 10 7 L 10 5 L 12 5 C 12.554 5 13 5.446 13 6 L 13 9.9140625 L 14.740234 11.216797 C 14.905072 10.844647 15 10.434584 15 10 L 15 6 C 15 4.338 13.662 3 12 3 L 10 3 L 10 1 z M 1.2714844 4.7910156 C 1.1044593 5.1608668 1 5.5653063 1 6 L 1 10 C 1 11.662 2.338 13 4 13 L 12 13 C 12.069365 13 12.135105 12.987191 12.203125 12.982422 L 9.5566406 11 L 4 11 C 3.446 11 3 10.554 3 10 L 3 6.0859375 L 1.2714844 4.7910156 z "
     style="fill:#444444;opacity:0.4"
     id="path3980" />
  <rect
     transform="rotate(-53.155226)"
     y="2.2409663"
     x="-2.3512723"
     height="17.916662"
     width="1.4927229"
     id="rect4026"
     style="fill:#444444;stroke-width:11.6836;stroke-linejoin:round;stroke-dashoffset:0.754014;opacity:0.4" />
</svg>
